<svg xmlns="http://www.w3.org/2000/svg" width="225.342" height="179.121" viewBox="0 0 225.342 179.121">
  <g id="anbi-algemeen-nut-beogende-instelling" transform="translate(-1)">
    <path id="Path_659" data-name="Path 659" d="M225.342,172.262a6.729,6.729,0,0,1-6.553,6.859H6.555A6.731,6.731,0,0,1,0,172.262V6.859A6.731,6.731,0,0,1,6.555,0H218.787a6.728,6.728,0,0,1,6.553,6.859v165.4Z" transform="translate(1)" fill="#ecf1f5"/>
    <g id="Group_1504" data-name="Group 1504" transform="translate(20.72 82.902)">
      <path id="Path_660" data-name="Path 660" d="M51.153,92.716H27.43l-3.425,10.553H12.968l18.287-54.98H46.926l18.569,54.982H54.657Zm-2.414-7.691L39.231,56.385,29.887,85.025Zm72.546-36.736v54.982H103.6L87.892,73.1q-1.172-2.256-3.664-7.9l-1.773-3.947-1.732-3.947h-.4l.158,3.626.124,3.585.079,7.211v31.541H70.249V48.289H87.933l14.3,27.874q2.262,4.459,4.393,8.982l2.093,4.472,2.094,4.51h.364l-.124-3.545-.12-3.543-.077-7.09V48.289h10.431Zm9.667,54.982V48.289h27.026q9.505,0,12.953,3.04t3.446,11.46q0,10.193-8.1,12V75q9.428,1.45,9.425,13.09,0,8.418-3.626,11.8t-12.644,3.384h-28.48Zm10.433-31.9h12.769q6.206,0,7.914-1.368t1.713-6.326q0-6.6-7.492-6.6H141.385v14.3Zm0,23.122h11.441l3.664-.079q5.279,0,6.951-1.49t1.67-6.283q0-4.993-1.753-6.283t-8.639-1.288H141.387V94.489Zm52.324-46.2v54.982H183.277V48.289Z" transform="translate(-12.968 -48.289)" fill="#899fa8"/>
    </g>
    <g id="Group_1505" data-name="Group 1505" transform="translate(41.381 30.382)">
      <path id="Path_661" data-name="Path 661" d="M74.258,18.667c.383,1.94,2.323,11.157,2.84,12.984a5.921,5.921,0,0,0-.882-.074,5.629,5.629,0,0,0-.864.074c-.132-1.343-.652-4.084-.864-5.037-.383-.017-1.48-.055-2.553-.055-.843,0-1.689.038-2.532.055-.694,1.008-2.4,3.825-3.015,5.037a2.7,2.7,0,0,0-.615-.074,6.333,6.333,0,0,0-.731.074q3.332-4.735,6.544-9.552c.961-1.435,1.631-2.369,2.306-3.432h.366Zm-.977,2.275h-.062L69.88,25.886q2.225.11,4.453,0l-1.052-4.944ZM80.4,31.651a4.012,4.012,0,0,0-1.554,0c1.246-4.5,2.611-11.231,3.015-13.954a3.7,3.7,0,0,0,.728.074,7.085,7.085,0,0,0,.886-.074C83.188,18.686,80.9,28.461,80.4,31.651Zm5.188-3.4a2.1,2.1,0,0,1-1.382-2.089c0-1.753,1.458-3.526,4.2-3.526a4.59,4.59,0,0,1,1.458.223,3.272,3.272,0,0,0,.982.094c.46,0,1.4-.057,1.9-.076,0,.112-.039.244-.039.393s.039.282.039.393q-.912-.056-1.825-.093a2.212,2.212,0,0,1,.539,1.53,3.5,3.5,0,0,1-1.846,3.04,5.56,5.56,0,0,1-2.591.522c-.421,0-.824-.019-1.112-.036-.211.13-.786.446-.786,1.025,0,.747.8.766,1.416.766,2.172.017,2.862.017,3.573.429a1.8,1.8,0,0,1,.845,1.622c0,1.437-1.267,4.048-4.951,4.048a3.863,3.863,0,0,1-2.419-.652,2.3,2.3,0,0,1-.886-1.772,2.606,2.606,0,0,1,1.269-2.146,4.961,4.961,0,0,1,1-.467l.017-.13c-.288-.074-1.056-.3-1.056-1.08,0-1.157,1.075-1.624,1.653-1.885v-.134Zm.632,7.7a3.128,3.128,0,0,0,3.435-2.91c0-1.454-1.574-1.511-2.611-1.511a4.112,4.112,0,0,0-2.11.467,2.31,2.31,0,0,0-1.075,2C83.861,35.4,84.993,35.96,86.222,35.96Zm1.227-7.835C89.31,28.125,90,26.09,90,24.952a1.615,1.615,0,0,0-1.689-1.772c-1.938,0-2.628,2-2.628,3.078A1.685,1.685,0,0,0,87.449,28.125ZM100.143,31a6.333,6.333,0,0,1-3.128.821,3.579,3.579,0,0,1-3.822-3.844,5.006,5.006,0,0,1,4.932-5.315c1.823,0,3.439.8,3.439,3.058a5.8,5.8,0,0,1-.215,1.512c-1.418-.074-1.957-.093-4.242-.093-.728,0-1.729.019-2.321.036a6.305,6.305,0,0,0-.1,1.082,2.6,2.6,0,0,0,2.785,2.893,4.694,4.694,0,0,0,2.86-.989h.057l-.249.84Zm-5.222-4.57c.788.055,1.825.074,2.613.074.747,0,1.842,0,2.553-.074a3.889,3.889,0,0,0,.113-1.008,1.982,1.982,0,0,0-2.074-2.22c-1.035,0-2.628.652-3.205,3.228Zm10.7-2.22h.038a4.243,4.243,0,0,1,3.15-1.494,2.136,2.136,0,0,1,2.361,1.809,4.212,4.212,0,0,1,3.356-1.809c1.672,0,2.5,1.044,2.5,1.976a10.026,10.026,0,0,1-.287,1.736l-.731,3.4a16.893,16.893,0,0,0-.307,1.827,4.338,4.338,0,0,0-.747-.074,5.815,5.815,0,0,0-.827.074,43.3,43.3,0,0,0,1.5-6.417,1.588,1.588,0,0,0-1.748-1.643,2.891,2.891,0,0,0-2.745,2.125c-.307,1.008-1,4.5-1.227,5.933a4.752,4.752,0,0,0-.73-.074,5.814,5.814,0,0,0-.826.074,39.576,39.576,0,0,0,1.459-6.567,1.532,1.532,0,0,0-1.706-1.492,2.871,2.871,0,0,0-2.747,2.163,58.144,58.144,0,0,0-1.193,5.9,4.525,4.525,0,0,0-.767-.074,4.771,4.771,0,0,0-.767.074,79.7,79.7,0,0,0,1.921-8.841,3.431,3.431,0,0,0,.671.072,5.505,5.505,0,0,0,.786-.072l-.381,1.4ZM125.741,31a6.335,6.335,0,0,1-3.126.821,3.578,3.578,0,0,1-3.822-3.844,5.005,5.005,0,0,1,4.931-5.315c1.823,0,3.439.8,3.439,3.058a5.8,5.8,0,0,1-.215,1.512c-1.418-.074-1.957-.093-4.242-.093-.728,0-1.725.019-2.321.036a6.269,6.269,0,0,0-.1,1.082,2.6,2.6,0,0,0,2.785,2.893,4.7,4.7,0,0,0,2.86-.989h.057l-.247.84Zm-5.221-4.57c.786.055,1.823.074,2.611.074.747,0,1.842,0,2.551-.074a3.888,3.888,0,0,0,.113-1.008,1.982,1.982,0,0,0-2.074-2.22c-1.033,0-2.625.652-3.2,3.228ZM135.341,31a6.328,6.328,0,0,1-3.128.821,3.579,3.579,0,0,1-3.822-3.844,5.006,5.006,0,0,1,4.932-5.315c1.823,0,3.439.8,3.439,3.058a5.972,5.972,0,0,1-.213,1.512c-1.418-.074-1.959-.093-4.242-.093-.731,0-1.727.019-2.323.036a6.269,6.269,0,0,0-.1,1.082,2.6,2.6,0,0,0,2.785,2.893,4.7,4.7,0,0,0,2.86-.989h.057l-.247.84Zm-5.221-4.57q1.3.078,2.611.074c.747,0,1.842,0,2.553-.074a3.888,3.888,0,0,0,.113-1.008,1.982,1.982,0,0,0-2.074-2.22c-1.035,0-2.628.652-3.2,3.228Zm10.775-2.239.077.036a4.293,4.293,0,0,1,3.167-1.511c1.36,0,2.687.745,2.687,2.239a9.366,9.366,0,0,1-.441,2.35c-.213.877-.79,3.564-.865,4.347a4.274,4.274,0,0,0-.731-.074,5.857,5.857,0,0,0-.843.074,37.635,37.635,0,0,0,1.439-6.4,1.715,1.715,0,0,0-1.9-1.66,2.935,2.935,0,0,0-2.783,2c-.441,1.288-1.229,5.466-1.325,6.064a3.85,3.85,0,0,0-.711-.074,4.83,4.83,0,0,0-.767.074c.52-1.717,1.689-7.332,1.94-8.841a3.678,3.678,0,0,0,.692.072,5,5,0,0,0,.73-.072l-.366,1.379ZM157.6,18.7c1.112,1.94,6.393,9.4,7.334,10.466.323-1.174,1.61-7.183,1.974-10.3a3.616,3.616,0,0,0,.673.074,2.635,2.635,0,0,0,.577-.074c-.711,2.388-2.689,11.25-2.9,12.984h-.268c-.6-1.025-6.544-9.422-7.332-10.392-.556,2.2-1.882,8.469-2.016,10.186a3.368,3.368,0,0,0-.652-.074,4,4,0,0,0-.671.074c.882-2.556,2.762-11.288,3.049-12.948h.232Zm17.82,11.678-.077-.074a4.276,4.276,0,0,1-3.265,1.549c-1.265,0-2.687-.766-2.687-2.146a21.261,21.261,0,0,1,.6-2.948c.154-.652.577-2.611.752-3.954a5.4,5.4,0,0,0,.841.072,5.588,5.588,0,0,0,.829-.072,45.128,45.128,0,0,0-1.5,6.361,1.661,1.661,0,0,0,1.864,1.791,3.031,3.031,0,0,0,2.86-2.163c.477-1.4,1.207-5.652,1.265-5.988a5.862,5.862,0,0,0,.766.072,5.1,5.1,0,0,0,.79-.072,77.04,77.04,0,0,0-1.94,8.841,4.291,4.291,0,0,0-.692-.074,4.339,4.339,0,0,0-.747.074Zm8.1-9.906c-.249.858-.441,1.717-.633,2.575.6,0,1.325-.057,2-.074a2.667,2.667,0,0,0-.113.764c-.671-.019-1.461-.074-2.038-.074l-.749,3.507a17.251,17.251,0,0,0-.439,2.611,1.323,1.323,0,0,0,1.36,1.361,2.565,2.565,0,0,0,1.269-.373l-.036.484a3.477,3.477,0,0,1-1.961.579,1.879,1.879,0,0,1-2.053-1.753,8.609,8.609,0,0,1,.268-1.662c.555-2.556.652-2.834,1.037-4.757-.366,0-.843.019-1.265.036a1.777,1.777,0,0,0,.113-.726c.405.017.9.074,1.229.074l.347-1.978,1.669-.6ZM31.338,45.718c2.225.2,2.879,1.549,2.879,2.519a4.182,4.182,0,0,1-2.476,3.6,8.212,8.212,0,0,1-3.456.671c-.383,0-2.072-.074-2.419-.074A5.454,5.454,0,0,0,25,52.51c.979-3.6,2.246-9.5,2.781-12.778.271.019.692.074,1.018.074.73,0,1.612-.074,2.494-.074a5.029,5.029,0,0,1,2.361.429,2.183,2.183,0,0,1,1.193,1.923c0,1.864-1.921,3.228-3.475,3.506Zm-1.016.355A9.968,9.968,0,0,0,29,46c-.347,0-.75,0-1.075.019q-.635,2.861-1.152,5.746A6.421,6.421,0,0,0,28,51.856a6.894,6.894,0,0,0,2.457-.391,3.666,3.666,0,0,0,2.168-3.209C32.624,46.93,31.589,46.24,30.322,46.074Zm.671-5.727c-.575,0-1.173.017-1.746.074-.654,2.611-.882,3.581-1.173,4.944a7.625,7.625,0,0,0,1,.055,5.564,5.564,0,0,0,2.685-.56A3.036,3.036,0,0,0,33.3,42.266C33.3,40.887,32.3,40.347,30.993,40.347ZM43.206,51.856a6.325,6.325,0,0,1-3.131.822,3.577,3.577,0,0,1-3.816-3.844,5.007,5.007,0,0,1,4.932-5.317c1.823,0,3.439.8,3.439,3.059a5.862,5.862,0,0,1-.215,1.511c-1.418-.074-1.957-.093-4.242-.093-.728,0-1.727.019-2.321.036a6.325,6.325,0,0,0-.1,1.082,2.6,2.6,0,0,0,2.781,2.893,4.69,4.69,0,0,0,2.862-.989h.06l-.252.84Zm-5.224-4.57c.788.055,1.825.074,2.611.074.75,0,1.846,0,2.556-.074a3.9,3.9,0,0,0,.113-1.008,1.982,1.982,0,0,0-2.074-2.22C40.155,44.058,38.562,44.712,37.982,47.286ZM51.194,43.5c3.035,0,4.088,1.753,4.088,3.638A5.506,5.506,0,0,1,49.85,52.7c-3.167,0-4.012-2.146-4.012-3.751A5.379,5.379,0,0,1,51.194,43.5Zm-1.4,8.6c2.9,0,3.974-3.451,3.974-5.3A2.464,2.464,0,0,0,51.211,44.1c-2.781,0-3.856,3.228-3.856,5.3C47.356,50.961,48.066,52.1,49.793,52.1Zm8.74-2.985a2.1,2.1,0,0,1-1.384-2.089c0-1.753,1.459-3.525,4.2-3.525a4.612,4.612,0,0,1,1.461.223,3.29,3.29,0,0,0,.977.093c.462,0,1.4-.057,1.9-.076,0,.112-.039.242-.039.393s.039.28.039.391q-.912-.058-1.825-.094a2.212,2.212,0,0,1,.539,1.53A3.505,3.505,0,0,1,62.565,49a5.574,5.574,0,0,1-2.592.522c-.422,0-.826-.017-1.114-.036-.211.13-.785.448-.785,1.027,0,.747.8.766,1.418.766,2.172.019,2.864.019,3.571.429a1.806,1.806,0,0,1,.846,1.622c0,1.437-1.269,4.048-4.953,4.048a3.842,3.842,0,0,1-2.419-.654,2.3,2.3,0,0,1-.886-1.772,2.611,2.611,0,0,1,1.269-2.146,5.051,5.051,0,0,1,1-.467l.019-.13c-.288-.074-1.056-.3-1.056-1.082,0-1.157,1.075-1.622,1.652-1.883v-.13Zm.632,7.7a3.129,3.129,0,0,0,3.435-2.91c0-1.454-1.573-1.511-2.61-1.511a4.108,4.108,0,0,0-2.11.467,2.314,2.314,0,0,0-1.076,2c0,1.4,1.133,1.957,2.361,1.957Zm1.228-7.837c1.864,0,2.553-2.033,2.553-3.171a1.617,1.617,0,0,0-1.689-1.773c-1.938,0-2.628,2-2.628,3.08a1.683,1.683,0,0,0,1.765,1.864Zm12.694,2.874a6.323,6.323,0,0,1-3.13.822,3.579,3.579,0,0,1-3.82-3.844,5.007,5.007,0,0,1,4.932-5.317c1.825,0,3.439.8,3.439,3.059a5.971,5.971,0,0,1-.211,1.511c-1.421-.074-1.961-.093-4.242-.093-.731,0-1.727.019-2.325.036a6.322,6.322,0,0,0-.1,1.082,2.6,2.6,0,0,0,2.785,2.893,4.7,4.7,0,0,0,2.862-.989h.057l-.251.84Zm-5.221-4.57q1.3.078,2.611.074c.747,0,1.842,0,2.553-.074a3.806,3.806,0,0,0,.115-1.008,1.982,1.982,0,0,0-2.074-2.22C70.033,44.058,68.441,44.712,67.866,47.286Zm10.773-2.24.074.038a4.3,4.3,0,0,1,3.167-1.511c1.363,0,2.687.747,2.687,2.239a9.316,9.316,0,0,1-.439,2.35c-.215.877-.788,3.566-.864,4.347a4.33,4.33,0,0,0-.731-.074,5.861,5.861,0,0,0-.843.074,38.057,38.057,0,0,0,1.439-6.4,1.718,1.718,0,0,0-1.9-1.662,2.935,2.935,0,0,0-2.785,2c-.441,1.288-1.228,5.466-1.324,6.062a3.884,3.884,0,0,0-.711-.074,4.788,4.788,0,0,0-.767.074c.518-1.715,1.688-7.332,1.938-8.841a3.514,3.514,0,0,0,.692.074A4.8,4.8,0,0,0,79,43.665Zm14.821,5.8a4.121,4.121,0,0,1-3.415,1.9,3.352,3.352,0,0,1-3.456-3.64c0-2.35,1.633-5.578,5.01-5.578a2.826,2.826,0,0,1,2.9,1.847h.076c.46-2.35,1-4.795,1.324-6.828a4.6,4.6,0,0,0,.767.074,4.345,4.345,0,0,0,.75-.074C96.3,42.975,95.9,45.028,95.074,48.963q-.372,1.763-.654,3.543a2.628,2.628,0,0,0-.654-.074,3.719,3.719,0,0,0-.728.074l.422-1.658Zm-3.013,1.176c2.9,0,3.724-3.657,3.724-5.281a2.282,2.282,0,0,0-2.342-2.537c-2.992,0-3.7,3.581-3.7,5.018C88.126,51.035,88.97,52.024,90.447,52.024Zm13.939-.168a6.3,6.3,0,0,1-3.128.822,3.579,3.579,0,0,1-3.82-3.844,5.009,5.009,0,0,1,4.936-5.317c1.823,0,3.434.8,3.434,3.059a5.911,5.911,0,0,1-.209,1.511c-1.422-.074-1.957-.093-4.242-.093-.728,0-1.727.019-2.321.036a6.324,6.324,0,0,0-.1,1.082,2.6,2.6,0,0,0,2.783,2.893,4.688,4.688,0,0,0,2.86-.989h.058l-.254.84Zm-5.221-4.57c.788.055,1.823.074,2.611.074.75,0,1.842,0,2.553-.074a3.806,3.806,0,0,0,.115-1.008,1.981,1.981,0,0,0-2.07-2.22C101.335,44.058,99.743,44.712,99.165,47.286Zm16.208-7.556a5.836,5.836,0,0,0,.826.074,6.143,6.143,0,0,0,.882-.074q-1.668,6.327-2.8,12.778a5.408,5.408,0,0,0-.846-.074,6.424,6.424,0,0,0-.864.074c.98-3.6,2.247-9.5,2.8-12.778Zm5.243,5.315.076.038a4.3,4.3,0,0,1,3.167-1.511c1.365,0,2.689.747,2.689,2.239a9.236,9.236,0,0,1-.443,2.35c-.211.877-.786,3.566-.865,4.347a4.269,4.269,0,0,0-.728-.074,5.865,5.865,0,0,0-.846.074,37.712,37.712,0,0,0,1.442-6.4,1.719,1.719,0,0,0-1.9-1.662,2.934,2.934,0,0,0-2.781,2c-.443,1.288-1.229,5.466-1.324,6.062a3.884,3.884,0,0,0-.711-.074,4.791,4.791,0,0,0-.767.074c.518-1.715,1.688-7.332,1.938-8.841a3.514,3.514,0,0,0,.692.074,4.8,4.8,0,0,0,.73-.074l-.366,1.38Zm13.247.113a1.566,1.566,0,0,0-1.571-1.1,1.806,1.806,0,0,0-1.825,1.772c0,.913.786,1.27,1.65,1.643.809.355,1.731.764,1.731,1.978,0,1.717-1.731,3.264-3.957,3.264a3.843,3.843,0,0,1-2.072-.539,7.331,7.331,0,0,0,.613-1.25h.137a1.914,1.914,0,0,0,1.9,1.118,1.967,1.967,0,0,0,2.093-1.923c0-.819-.517-1.063-1.535-1.53-.824-.373-1.749-.8-1.749-2.146,0-1.269.943-3,3.513-3a3.971,3.971,0,0,1,1.751.374,5.79,5.79,0,0,0-.5,1.343h-.175Zm5.9-3.825c-.251.858-.443,1.717-.635,2.575.6,0,1.324-.057,1.995-.074a2.678,2.678,0,0,0-.113.766c-.671-.021-1.458-.074-2.034-.074l-.749,3.506a16.89,16.89,0,0,0-.443,2.613,1.326,1.326,0,0,0,1.363,1.361,2.553,2.553,0,0,0,1.265-.373l-.036.484a3.477,3.477,0,0,1-1.959.579,1.878,1.878,0,0,1-2.053-1.755,8.58,8.58,0,0,1,.266-1.66c.558-2.556.654-2.836,1.039-4.757-.364,0-.845.019-1.267.036a1.8,1.8,0,0,0,.115-.728c.4.019.9.074,1.227.074l.345-1.978,1.674-.6ZM148.5,51.856a6.316,6.316,0,0,1-3.128.822,3.58,3.58,0,0,1-3.822-3.844,5.008,5.008,0,0,1,4.936-5.317c1.823,0,3.434.8,3.434,3.059a5.989,5.989,0,0,1-.209,1.511c-1.421-.074-1.959-.093-4.242-.093-.735,0-1.729.019-2.326.036a6.949,6.949,0,0,0-.094,1.082,2.6,2.6,0,0,0,2.785,2.893,4.7,4.7,0,0,0,2.86-.989h.057l-.249.84Zm-5.221-4.57q1.3.078,2.61.074c.752,0,1.844,0,2.553-.074a3.806,3.806,0,0,0,.115-1.008,1.982,1.982,0,0,0-2.07-2.22C145.442,44.058,143.849,44.712,143.276,47.286Zm9.312,5.222a4.076,4.076,0,0,0-1.555,0c1.252-4.5,2.611-11.229,3.015-13.954a3.709,3.709,0,0,0,.73.074,7.085,7.085,0,0,0,.886-.074C155.371,39.543,153.085,49.32,152.588,52.508Zm4.63,0a4.076,4.076,0,0,0-1.555,0c1.25-4.5,2.609-11.229,3.013-13.954a3.734,3.734,0,0,0,.728.074,7.032,7.032,0,0,0,.888-.074C160,39.543,157.716,49.32,157.218,52.508Zm4.683,0a7.37,7.37,0,0,0-.882-.074,4,4,0,0,0-.75.074,87.566,87.566,0,0,0,1.978-8.841,6.024,6.024,0,0,0,.807.074,4.842,4.842,0,0,0,.786-.074A84.344,84.344,0,0,0,161.9,52.508Zm1.8-12.685a.9.9,0,1,1-.92.9A.906.906,0,0,1,163.706,39.823Zm4.228,5.222.074.038a4.3,4.3,0,0,1,3.167-1.511c1.363,0,2.687.747,2.687,2.239a9.188,9.188,0,0,1-.441,2.35c-.213.877-.786,3.566-.864,4.347a4.328,4.328,0,0,0-.73-.074,5.864,5.864,0,0,0-.846.074,37.549,37.549,0,0,0,1.442-6.4,1.719,1.719,0,0,0-1.9-1.662,2.931,2.931,0,0,0-2.779,2c-.445,1.288-1.229,5.466-1.325,6.062a3.884,3.884,0,0,0-.711-.074,4.791,4.791,0,0,0-.767.074c.52-1.715,1.689-7.332,1.94-8.841a3.5,3.5,0,0,0,.692.074,4.8,4.8,0,0,0,.728-.074l-.364,1.38Zm9.77,4.069a2.1,2.1,0,0,1-1.382-2.089c0-1.753,1.461-3.525,4.206-3.525a4.59,4.59,0,0,1,1.458.223,3.3,3.3,0,0,0,.977.093c.462,0,1.4-.057,1.9-.076,0,.112-.036.242-.036.393s.036.28.036.391q-.91-.058-1.822-.094a2.214,2.214,0,0,1,.536,1.53A3.505,3.505,0,0,1,181.733,49a5.557,5.557,0,0,1-2.591.522c-.424,0-.827-.017-1.112-.036-.213.13-.788.448-.788,1.027,0,.747.807.766,1.422.766,2.17.019,2.858.019,3.569.429a1.8,1.8,0,0,1,.845,1.622c0,1.437-1.265,4.048-4.951,4.048a3.856,3.856,0,0,1-2.422-.654,2.3,2.3,0,0,1-.881-1.772,2.607,2.607,0,0,1,1.265-2.146,5,5,0,0,1,1-.467l.021-.13c-.288-.074-1.056-.3-1.056-1.082,0-1.157,1.075-1.622,1.65-1.883v-.13Zm.635,7.7a3.13,3.13,0,0,0,3.435-2.91c0-1.454-1.574-1.511-2.611-1.511a4.124,4.124,0,0,0-2.112.467,2.318,2.318,0,0,0-1.076,2c0,1.4,1.137,1.957,2.364,1.957Zm1.229-7.837c1.861,0,2.553-2.033,2.553-3.171a1.617,1.617,0,0,0-1.689-1.773c-1.94,0-2.632,2-2.632,3.08a1.684,1.684,0,0,0,1.768,1.864Z" transform="translate(-25.003 -17.697)" fill="#899fa8"/>
    </g>
    <path id="Path_662" data-name="Path 662" d="M13.638,97.663a3.506,3.506,0,0,1-3.5-3.5v-.649a3.506,3.506,0,0,1,3.5-3.5H197.8a3.506,3.506,0,0,1,3.5,3.5v.649a3.506,3.506,0,0,1-3.5,3.5Z" transform="translate(5.727 64.527)" fill="#899fa8"/>
  </g>
</svg>